<mxfile host="Electron" agent="Mozilla/5.0 (Windows NT 10.0; Win64; x64) AppleWebKit/537.36 (KHTML, like Gecko) draw.io/26.2.2 Chrome/134.0.6998.178 Electron/35.1.2 Safari/537.36" version="26.2.2">
  <diagram name="Page-1" id="0fxxBZyXeV0ZOm-Dx_De">
    <mxGraphModel dx="1044" dy="1726" grid="1" gridSize="10" guides="1" tooltips="1" connect="1" arrows="1" fold="1" page="1" pageScale="1" pageWidth="850" pageHeight="1100" math="0" shadow="0">
      <root>
        <mxCell id="0" />
        <mxCell id="1" parent="0" />
        <mxCell id="86IJZDmyRaUhktD1-QXw-46" value="" style="rounded=1;whiteSpace=wrap;html=1;fillColor=none;dashed=1;" parent="1" vertex="1">
          <mxGeometry y="120" width="450" height="330" as="geometry" />
        </mxCell>
        <mxCell id="86IJZDmyRaUhktD1-QXw-51" value="" style="rounded=1;whiteSpace=wrap;html=1;fillColor=none;dashed=1;strokeColor=default;" parent="1" vertex="1">
          <mxGeometry x="510" y="40" width="280" height="450" as="geometry" />
        </mxCell>
        <mxCell id="86IJZDmyRaUhktD1-QXw-1" value="&lt;span&gt;&lt;font style=&quot;font-size: 13px; color: rgb(0, 0, 0);&quot;&gt;crm_cust_info&lt;/font&gt;&lt;/span&gt;" style="swimlane;fontStyle=0;childLayout=stackLayout;horizontal=1;startSize=30;horizontalStack=0;resizeParent=1;resizeParentMax=0;resizeLast=0;collapsible=1;marginBottom=0;whiteSpace=wrap;html=1;swimlaneFillColor=none;align=center;fillColor=#f5f5f5;strokeColor=#666666;gradientColor=#b3b3b3;" parent="1" vertex="1">
          <mxGeometry x="285" y="180" width="140" height="90" as="geometry">
            <mxRectangle x="310" y="180" width="120" height="30" as="alternateBounds" />
          </mxGeometry>
        </mxCell>
        <mxCell id="86IJZDmyRaUhktD1-QXw-2" value="cst_id" style="text;strokeColor=none;fillColor=none;align=left;verticalAlign=middle;spacingLeft=4;spacingRight=4;overflow=hidden;points=[[0,0.5],[1,0.5]];portConstraint=eastwest;rotatable=0;whiteSpace=wrap;html=1;" parent="86IJZDmyRaUhktD1-QXw-1" vertex="1">
          <mxGeometry y="30" width="140" height="30" as="geometry" />
        </mxCell>
        <mxCell id="86IJZDmyRaUhktD1-QXw-34" value="cst_key" style="text;strokeColor=none;fillColor=none;align=left;verticalAlign=middle;spacingLeft=4;spacingRight=4;overflow=hidden;points=[[0,0.5],[1,0.5]];portConstraint=eastwest;rotatable=0;whiteSpace=wrap;html=1;" parent="86IJZDmyRaUhktD1-QXw-1" vertex="1">
          <mxGeometry y="60" width="140" height="30" as="geometry" />
        </mxCell>
        <mxCell id="86IJZDmyRaUhktD1-QXw-6" value="Customer Information" style="text;html=1;align=center;verticalAlign=middle;whiteSpace=wrap;rounded=0;" parent="1" vertex="1">
          <mxGeometry x="270" y="150" width="160" height="30" as="geometry" />
        </mxCell>
        <mxCell id="86IJZDmyRaUhktD1-QXw-7" value="&lt;span&gt;&lt;font style=&quot;font-size: 13px; color: rgb(0, 0, 0);&quot;&gt;crm_prd_info&lt;/font&gt;&lt;/span&gt;" style="swimlane;fontStyle=0;childLayout=stackLayout;horizontal=1;startSize=30;horizontalStack=0;resizeParent=1;resizeParentMax=0;resizeLast=0;collapsible=1;marginBottom=0;whiteSpace=wrap;html=1;swimlaneFillColor=none;align=center;fillColor=#f5f5f5;strokeColor=#666666;gradientColor=#b3b3b3;" parent="1" vertex="1">
          <mxGeometry x="285" y="340" width="140" height="80" as="geometry">
            <mxRectangle x="310" y="180" width="120" height="30" as="alternateBounds" />
          </mxGeometry>
        </mxCell>
        <mxCell id="86IJZDmyRaUhktD1-QXw-8" value="prd_key" style="text;strokeColor=none;fillColor=none;align=left;verticalAlign=middle;spacingLeft=4;spacingRight=4;overflow=hidden;points=[[0,0.5],[1,0.5]];portConstraint=eastwest;rotatable=0;whiteSpace=wrap;html=1;" parent="86IJZDmyRaUhktD1-QXw-7" vertex="1">
          <mxGeometry y="30" width="140" height="30" as="geometry" />
        </mxCell>
        <mxCell id="IqqBhENwI9Ore0piZDlj-7" value="&lt;font style=&quot;color: rgb(0, 0, 0);&quot;&gt;Product&lt;/font&gt;" style="text;html=1;strokeColor=#C73500;fillColor=#fa6800;align=center;verticalAlign=middle;whiteSpace=wrap;overflow=hidden;fontColor=#000000;" vertex="1" parent="86IJZDmyRaUhktD1-QXw-7">
          <mxGeometry y="60" width="140" height="20" as="geometry" />
        </mxCell>
        <mxCell id="86IJZDmyRaUhktD1-QXw-9" value="Current &amp;amp; Hestorical Product Information" style="text;html=1;align=center;verticalAlign=middle;whiteSpace=wrap;rounded=0;" parent="1" vertex="1">
          <mxGeometry x="270" y="310" width="160" height="30" as="geometry" />
        </mxCell>
        <mxCell id="86IJZDmyRaUhktD1-QXw-10" value="&lt;span&gt;&lt;font style=&quot;font-size: 13px; color: rgb(0, 0, 0);&quot;&gt;crm_sales_details&lt;/font&gt;&lt;/span&gt;" style="swimlane;fontStyle=0;childLayout=stackLayout;horizontal=1;startSize=30;horizontalStack=0;resizeParent=1;resizeParentMax=0;resizeLast=0;collapsible=1;marginBottom=0;whiteSpace=wrap;html=1;swimlaneFillColor=none;align=center;fillColor=#f5f5f5;strokeColor=#666666;gradientColor=#b3b3b3;" parent="1" vertex="1">
          <mxGeometry x="10" y="230" width="140" height="90" as="geometry">
            <mxRectangle x="80" y="220" width="120" height="30" as="alternateBounds" />
          </mxGeometry>
        </mxCell>
        <mxCell id="86IJZDmyRaUhktD1-QXw-11" value="cst_key" style="text;strokeColor=none;fillColor=none;align=left;verticalAlign=middle;spacingLeft=4;spacingRight=4;overflow=hidden;points=[[0,0.5],[1,0.5]];portConstraint=eastwest;rotatable=0;whiteSpace=wrap;html=1;" parent="86IJZDmyRaUhktD1-QXw-10" vertex="1">
          <mxGeometry y="30" width="140" height="30" as="geometry" />
        </mxCell>
        <mxCell id="86IJZDmyRaUhktD1-QXw-18" value="prd_key" style="text;strokeColor=none;fillColor=none;align=left;verticalAlign=middle;spacingLeft=4;spacingRight=4;overflow=hidden;points=[[0,0.5],[1,0.5]];portConstraint=eastwest;rotatable=0;whiteSpace=wrap;html=1;" parent="86IJZDmyRaUhktD1-QXw-10" vertex="1">
          <mxGeometry y="60" width="140" height="30" as="geometry" />
        </mxCell>
        <mxCell id="86IJZDmyRaUhktD1-QXw-20" style="edgeStyle=orthogonalEdgeStyle;rounded=0;orthogonalLoop=1;jettySize=auto;html=1;" parent="1" source="86IJZDmyRaUhktD1-QXw-11" target="86IJZDmyRaUhktD1-QXw-2" edge="1">
          <mxGeometry relative="1" as="geometry" />
        </mxCell>
        <mxCell id="86IJZDmyRaUhktD1-QXw-21" style="edgeStyle=orthogonalEdgeStyle;rounded=0;orthogonalLoop=1;jettySize=auto;html=1;entryX=0;entryY=0.5;entryDx=0;entryDy=0;" parent="1" source="86IJZDmyRaUhktD1-QXw-18" target="86IJZDmyRaUhktD1-QXw-8" edge="1">
          <mxGeometry relative="1" as="geometry" />
        </mxCell>
        <mxCell id="86IJZDmyRaUhktD1-QXw-22" value="Sales Information" style="text;html=1;align=center;verticalAlign=middle;whiteSpace=wrap;rounded=0;" parent="1" vertex="1">
          <mxGeometry y="200" width="160" height="30" as="geometry" />
        </mxCell>
        <mxCell id="86IJZDmyRaUhktD1-QXw-23" value="&lt;font color=&quot;#000000&quot;&gt;&lt;span style=&quot;font-size: 13px;&quot;&gt;erp_cust_az12&lt;/span&gt;&lt;/font&gt;" style="swimlane;fontStyle=0;childLayout=stackLayout;horizontal=1;startSize=30;horizontalStack=0;resizeParent=1;resizeParentMax=0;resizeLast=0;collapsible=1;marginBottom=0;whiteSpace=wrap;html=1;swimlaneFillColor=none;align=center;fillColor=#f5f5f5;strokeColor=#666666;gradientColor=#b3b3b3;" parent="1" vertex="1">
          <mxGeometry x="580" y="90" width="140" height="80" as="geometry">
            <mxRectangle x="310" y="180" width="120" height="30" as="alternateBounds" />
          </mxGeometry>
        </mxCell>
        <mxCell id="86IJZDmyRaUhktD1-QXw-24" value="cid" style="text;strokeColor=none;fillColor=none;align=left;verticalAlign=middle;spacingLeft=4;spacingRight=4;overflow=hidden;points=[[0,0.5],[1,0.5]];portConstraint=eastwest;rotatable=0;whiteSpace=wrap;html=1;" parent="86IJZDmyRaUhktD1-QXw-23" vertex="1">
          <mxGeometry y="30" width="140" height="30" as="geometry" />
        </mxCell>
        <mxCell id="IqqBhENwI9Ore0piZDlj-1" value="&lt;font style=&quot;color: rgb(0, 0, 0);&quot;&gt;Customerr&lt;/font&gt;" style="text;html=1;strokeColor=#d6b656;fillColor=#fff2cc;align=center;verticalAlign=middle;whiteSpace=wrap;overflow=hidden;" vertex="1" parent="86IJZDmyRaUhktD1-QXw-23">
          <mxGeometry y="60" width="140" height="20" as="geometry" />
        </mxCell>
        <mxCell id="86IJZDmyRaUhktD1-QXw-25" value="Customer Information" style="text;html=1;align=center;verticalAlign=middle;whiteSpace=wrap;rounded=0;" parent="1" vertex="1">
          <mxGeometry x="570" y="60" width="160" height="30" as="geometry" />
        </mxCell>
        <mxCell id="86IJZDmyRaUhktD1-QXw-26" value="&lt;font color=&quot;#000000&quot;&gt;&lt;span style=&quot;font-size: 13px;&quot;&gt;erp_loc_a101&lt;/span&gt;&lt;/font&gt;" style="swimlane;fontStyle=0;childLayout=stackLayout;horizontal=1;startSize=30;horizontalStack=0;resizeParent=1;resizeParentMax=0;resizeLast=0;collapsible=1;marginBottom=0;whiteSpace=wrap;html=1;swimlaneFillColor=none;align=center;fillColor=#f5f5f5;strokeColor=#666666;gradientColor=#b3b3b3;" parent="1" vertex="1">
          <mxGeometry x="580" y="210" width="140" height="60" as="geometry">
            <mxRectangle x="310" y="180" width="120" height="30" as="alternateBounds" />
          </mxGeometry>
        </mxCell>
        <mxCell id="86IJZDmyRaUhktD1-QXw-27" value="cid" style="text;strokeColor=none;fillColor=none;align=left;verticalAlign=middle;spacingLeft=4;spacingRight=4;overflow=hidden;points=[[0,0.5],[1,0.5]];portConstraint=eastwest;rotatable=0;whiteSpace=wrap;html=1;" parent="86IJZDmyRaUhktD1-QXw-26" vertex="1">
          <mxGeometry y="30" width="140" height="30" as="geometry" />
        </mxCell>
        <mxCell id="86IJZDmyRaUhktD1-QXw-37" value="Customer Location" style="text;html=1;align=center;verticalAlign=middle;whiteSpace=wrap;rounded=0;" parent="1" vertex="1">
          <mxGeometry x="570" y="180" width="160" height="30" as="geometry" />
        </mxCell>
        <mxCell id="86IJZDmyRaUhktD1-QXw-39" style="edgeStyle=orthogonalEdgeStyle;rounded=0;orthogonalLoop=1;jettySize=auto;html=1;entryX=1;entryY=0.5;entryDx=0;entryDy=0;" parent="1" source="86IJZDmyRaUhktD1-QXw-24" target="86IJZDmyRaUhktD1-QXw-34" edge="1">
          <mxGeometry relative="1" as="geometry" />
        </mxCell>
        <mxCell id="86IJZDmyRaUhktD1-QXw-41" style="edgeStyle=orthogonalEdgeStyle;rounded=0;orthogonalLoop=1;jettySize=auto;html=1;entryX=1;entryY=0.5;entryDx=0;entryDy=0;" parent="1" source="86IJZDmyRaUhktD1-QXw-27" target="86IJZDmyRaUhktD1-QXw-34" edge="1">
          <mxGeometry relative="1" as="geometry" />
        </mxCell>
        <mxCell id="86IJZDmyRaUhktD1-QXw-42" value="&lt;font color=&quot;#000000&quot;&gt;&lt;span style=&quot;font-size: 13px;&quot;&gt;erp_px_cat_g1v2&lt;/span&gt;&lt;/font&gt;" style="swimlane;fontStyle=0;childLayout=stackLayout;horizontal=1;startSize=30;horizontalStack=0;resizeParent=1;resizeParentMax=0;resizeLast=0;collapsible=1;marginBottom=0;whiteSpace=wrap;html=1;swimlaneFillColor=none;align=center;fillColor=#f5f5f5;strokeColor=#666666;gradientColor=#b3b3b3;" parent="1" vertex="1">
          <mxGeometry x="580" y="380" width="140" height="80" as="geometry">
            <mxRectangle x="310" y="180" width="120" height="30" as="alternateBounds" />
          </mxGeometry>
        </mxCell>
        <mxCell id="86IJZDmyRaUhktD1-QXw-43" value="prd_key" style="text;strokeColor=none;fillColor=none;align=left;verticalAlign=middle;spacingLeft=4;spacingRight=4;overflow=hidden;points=[[0,0.5],[1,0.5]];portConstraint=eastwest;rotatable=0;whiteSpace=wrap;html=1;" parent="86IJZDmyRaUhktD1-QXw-42" vertex="1">
          <mxGeometry y="30" width="140" height="30" as="geometry" />
        </mxCell>
        <mxCell id="IqqBhENwI9Ore0piZDlj-6" value="&lt;font style=&quot;color: rgb(0, 0, 0);&quot;&gt;Product&lt;/font&gt;" style="text;html=1;strokeColor=#C73500;fillColor=#fa6800;align=center;verticalAlign=middle;whiteSpace=wrap;overflow=hidden;fontColor=#000000;" vertex="1" parent="86IJZDmyRaUhktD1-QXw-42">
          <mxGeometry y="60" width="140" height="20" as="geometry" />
        </mxCell>
        <mxCell id="86IJZDmyRaUhktD1-QXw-44" value="Product Category" style="text;html=1;align=center;verticalAlign=middle;whiteSpace=wrap;rounded=0;" parent="1" vertex="1">
          <mxGeometry x="560" y="350" width="160" height="30" as="geometry" />
        </mxCell>
        <mxCell id="86IJZDmyRaUhktD1-QXw-45" style="edgeStyle=orthogonalEdgeStyle;rounded=0;orthogonalLoop=1;jettySize=auto;html=1;entryX=1;entryY=0.5;entryDx=0;entryDy=0;" parent="1" source="86IJZDmyRaUhktD1-QXw-43" target="86IJZDmyRaUhktD1-QXw-8" edge="1">
          <mxGeometry relative="1" as="geometry" />
        </mxCell>
        <mxCell id="86IJZDmyRaUhktD1-QXw-49" value="&lt;font style=&quot;font-size: 16px;&quot;&gt;CRM&lt;/font&gt;" style="rounded=1;whiteSpace=wrap;html=1;" parent="1" vertex="1">
          <mxGeometry x="182.5" y="100" width="85" height="40" as="geometry" />
        </mxCell>
        <mxCell id="86IJZDmyRaUhktD1-QXw-52" value="&lt;font style=&quot;font-size: 16px;&quot;&gt;ERP&lt;/font&gt;" style="rounded=1;whiteSpace=wrap;html=1;" parent="1" vertex="1">
          <mxGeometry x="607.5" y="20" width="85" height="40" as="geometry" />
        </mxCell>
        <mxCell id="86IJZDmyRaUhktD1-QXw-53" value="&lt;font style=&quot;font-size: 19px;&quot;&gt;Integation Model&lt;/font&gt;" style="text;html=1;align=center;verticalAlign=middle;whiteSpace=wrap;rounded=0;" parent="1" vertex="1">
          <mxGeometry x="70" y="-20" width="150" height="41" as="geometry" />
        </mxCell>
        <mxCell id="IqqBhENwI9Ore0piZDlj-2" value="&lt;font style=&quot;color: rgb(0, 0, 0);&quot;&gt;Customer&lt;/font&gt;" style="text;html=1;strokeColor=#d6b656;fillColor=#fff2cc;align=center;verticalAlign=middle;whiteSpace=wrap;overflow=hidden;" vertex="1" parent="1">
          <mxGeometry x="580" y="265" width="140" height="20" as="geometry" />
        </mxCell>
        <mxCell id="IqqBhENwI9Ore0piZDlj-3" value="&lt;font style=&quot;color: rgb(0, 0, 0);&quot;&gt;Customer&lt;/font&gt;" style="text;html=1;strokeColor=#d6b656;fillColor=#fff2cc;align=center;verticalAlign=middle;whiteSpace=wrap;overflow=hidden;" vertex="1" parent="1">
          <mxGeometry x="285" y="270" width="140" height="20" as="geometry" />
        </mxCell>
      </root>
    </mxGraphModel>
  </diagram>
</mxfile>
